<?xml version="1.0" encoding="UTF-8"?>
<svg version="1.1" viewBox="0 0 63 31" xmlns="http://www.w3.org/2000/svg">
 <path d="m14.575 17.599 7.7461-9.291h-7.9699l-7.424 9.5038v-17.812h-6.9273v29.86h6.9273v-7.0747l1.8669-2.2981 6.0429 9.3728h8.0409l-8.3029-12.26z"/>
 <path d="m41.706 22.84-2.1289 2.1071c-0.2293 0.1255-0.6332 0.2675-1.2173 0.4203-0.5841 0.1529-1.0481 0.2293-1.4084 0.2293-0.868 0-1.5285-0.131-1.9816-0.393-0.453-0.2621-0.7697-0.6169-0.9443-1.0645-0.1911-0.4477-0.2948-0.9553-0.3057-1.5176-0.0109-0.5622-0.0219-1.2228-0.0219-1.9815v-7.6479h6.4469v-4.6837h-6.4469v-6.163h-6.9272v6.163h-2.8386l-4.0013 4.6837h6.8399v10.077c0 2.6367 0.655 4.4981 1.9652 5.5844 1.3101 1.0864 3.308 1.6322 5.9992 1.6322 1.201 0 2.2218-0.0546 3.0515-0.1637 0.8297-0.1092 3.3026-1.1136 3.8539-1.3102l0.0655-5.9719z"/>
 <path d="m61.701 19.221c-0.868-1.0153-2.2163-1.7632-4.0286-2.2381-0.8189-0.202-1.6322-0.3767-2.4456-0.5077-0.8134-0.1365-1.5721-0.2729-2.2763-0.4149-1.2774-0.2674-2.0908-0.5349-2.4347-0.8079-0.3439-0.2729-0.5186-0.6605-0.5186-1.1682 0-0.5622 0.3822-0.9989 1.1409-1.3046 0.7588-0.3057 1.6977-0.4586 2.8113-0.4586 1.3429 0 2.6694 0.2184 3.9795 0.6606 1.3102 0.4421 2.4783 1.0153 3.5046 1.7195h0.595v-5.4479c-0.8297-0.3712-1.987-0.72056-3.4663-1.0481-1.4794-0.32753-3.0242-0.4913-4.6346-0.4913-3.4008 0-6.0866 0.68781-8.0518 2.0634-1.9651 1.3756-2.9477 3.1006-2.9477 5.1695 0 1.6104 0.4749 2.9587 1.4193 4.0396 0.9443 1.0808 2.3964 1.8778 4.3561 2.3909 0.7151 0.1911 1.5121 0.3549 2.391 0.4913 0.8734 0.1365 1.5721 0.2566 2.0798 0.3767 1.0754 0.2184 1.8014 0.4422 2.189 0.6824 0.3821 0.2347 0.5732 0.6168 0.5732 1.1409 0 0.5895-0.3276 1.0317-0.9772 1.3319-0.655 0.3002-1.6595 0.4531-3.0132 0.4531-1.0372 0-2.0089-0.1037-2.9151-0.3166-0.9061-0.2129-1.7195-0.464-2.4346-0.7588-0.8297-0.333-1.4739-0.6441-1.927-0.9334-0.4531-0.2894-0.8516-0.5514-1.2009-0.797h-0.6332v5.6826c0.9443 0.4367 2.1999 0.8297 3.7611 1.19s3.3026 0.535 5.2186 0.535c3.4664 0 6.2013-0.6823 8.1938-2.0416 1.9924-1.3592 2.9914-3.1552 2.9914-5.3824 0.0055-1.523-0.4313-2.7949-1.2992-3.8103z"/>
</svg>
