<?xml version="1.0" encoding="UTF-8"?>
<svg cursor="default" version="1.1" viewBox="0 0 512 512" xml:space="preserve" xmlns="http://www.w3.org/2000/svg">
  <path d="m435.18 196.53c-0.467 0-0.928 0.025-1.393 0.035 0.45-3.69 0.687-7.445 0.687-11.257 0-50.762-41.151-91.913-91.913-91.913-31.99 0-60.158 16.346-76.62 41.138-13.31-6.382-28.223-9.958-43.971-9.958-56.244 0-101.84 45.595-101.84 101.84s45.595 101.84 101.84 101.84h213.21c36.375 0 65.862-29.487 65.862-65.862s-29.486-65.861-65.861-65.861z" fill="#0069A3"/>
  <path d="m450.26 313.17h-213.21c-56.244 0-101.84-45.595-101.84-101.84 0-24.281 8.502-46.573 22.686-64.072-23.037 18.67-37.767 47.19-37.767 79.153 0 56.244 45.595 101.84 101.84 101.84h213.21c22.037 0 41.532-10.834 53.488-27.455-10.814 7.778-24.07 12.374-38.407 12.374z" enable-background="new" opacity=".1"/>
  <path d="m308.46 161.44c-3.976-16.87-13.065-32.797-25.662-45.954-6.458 5.533-12.144 11.942-16.862 19.049-0.457-0.22 24.537 12.728 36.718 29.74 2.07 2.891 6.622 0.625 5.806-2.835z" enable-background="new" opacity=".1"/>
  <path d="m377.87 388.2c-107.91 0.868-196.84-86.584-197.69-194.5-0.624-78.792 45.231-146.94 111.78-178.67 6.792-3.238 5.084-13.383-2.413-14.041-8.151-0.715-16.412-1.049-24.765-0.979-140.86 1.173-254.9 117.13-253.82 257.99 1.073 140.47 115.27 254 255.99 254 103.79 0 193.14-61.774 233.32-150.56 3.1-6.85-4.814-13.453-10.953-9.112-31.545 22.307-69.963 35.535-111.46 35.868z" fill="#F5DF5D"/>
  <path d="m283.74 495.22c-140.72 0-254.92-113.54-255.99-254-0.511-66.951 24.998-128.26 67.02-174.31-51.912 47.348-84.375 115.64-83.799 191.09 1.073 140.47 115.27 254 255.99 254 74.937 0 142.34-32.205 189.15-83.523-45.486 41.46-105.97 66.744-172.37 66.744z" enable-background="new" opacity=".1"/>
  <g opacity=".05">
    <path d="m76.099 341.85c-16.814 0-32.138 6.373-43.694 16.833 17.775 40.545 45.743 75.603 80.677 101.92 17.006-11.753 28.155-31.377 28.155-53.613 0-35.976-29.163-65.139-65.138-65.139z"/>
    <circle cx="110.27" cy="248.8" r="20.023"/>
    <path d="m384.13 388.04c-2.612 0.104-5.232 0.169-7.869 0.169-35.334 0-68.482-9.351-97.114-25.705-4.352 7.957-6.83 17.087-6.83 26.795 0 30.885 25.037 55.922 55.922 55.922s55.922-25.037 55.922-55.922c1e-3 -0.422-0.021-0.84-0.031-1.259z"/>
    <path d="m112.47 51.871c-22.768 17.258-42.559 38.234-58.469 62.029 7.491 6.516 17.271 10.469 27.979 10.469 23.563 0 42.667-19.102 42.667-42.667-1e-3 -11.613-4.647-22.138-12.177-29.831z"/>
  </g>
</svg>
