<?xml version="1.0" encoding="UTF-8"?>
<svg cursor="default" version="1.1" viewBox="0 0 512 512" xml:space="preserve" xmlns="http://www.w3.org/2000/svg">
  <g fill="#E45D4C">
    <path d="m70.95 87.653 16.866 98.497h98.333v-98.333l-98.496-16.867c-9.838-1.684-18.387 6.865-16.703 16.703z"/>
    <path d="m6.111 267.81 81.574 57.722 69.532-69.532-69.532-69.532-81.574 57.722c-8.148 5.765-8.148 17.855 0 23.62z"/>
    <path d="m87.653 441.05 98.496-16.866v-98.333h-98.332l-16.867 98.496c-1.684 9.839 6.865 18.387 16.703 16.703z"/>
    <path d="m267.81 505.89 57.722-81.574-69.532-69.532-69.532 69.532 57.722 81.574c5.765 8.148 17.855 8.148 23.62 0z"/>
    <path d="m441.05 424.35-16.866-98.496h-98.333v98.333l98.497 16.866c9.838 1.684 18.386-6.864 16.702-16.703z"/>
    <path d="m505.89 244.19-81.574-57.722-69.532 69.532 69.532 69.532 81.574-57.722c8.148-5.765 8.148-17.855 0-23.62z"/>
    <path d="m424.35 70.95-98.497 16.867v98.333h98.333l16.866-98.497c1.685-9.838-6.863-18.387-16.702-16.703z"/>
    <path d="m244.19 6.111-57.722 81.574 69.532 69.532 69.532-69.532-57.722-81.574c-5.765-8.148-17.855-8.148-23.62 0z"/>
  </g>
  <g fill="#25292F">
    <path d="m6.111 267.81 81.574 57.722 69.532-69.532-69.532-69.532-81.574 57.722c-8.148 5.765-8.148 17.855 0 23.62z" enable-background="new" opacity=".15"/>
    <path d="m267.81 505.89 57.722-81.574-69.532-69.532-69.532 69.532 57.722 81.574c5.765 8.148 17.855 8.148 23.62 0z" enable-background="new" opacity=".15"/>
    <path d="m505.89 244.19-81.574-57.722-69.532 69.532 69.532 69.532 81.574-57.722c8.148-5.765 8.148-17.855 0-23.62z" enable-background="new" opacity=".15"/>
    <path d="m244.19 6.111-57.722 81.574 69.532 69.532 69.532-69.532-57.722-81.574c-5.765-8.148-17.855-8.148-23.62 0z" enable-background="new" opacity=".15"/>
    <path d="m325.85 325.85v98.333l12.343 2.114c35.962-23.178 63.256-58.636 75.968-100.45h-88.311z" enable-background="new" opacity=".1"/>
    <path d="m256 354.78-69.532 69.532 19.819 28.008c10.728 1.962 21.781 2.995 33.076 2.995 27.074 0 52.77-5.897 75.881-16.465l10.287-14.538-69.531-69.532z" enable-background="new" opacity=".1"/>
    <path d="m85.703 173.81 2.114 12.344h98.333v-88.312c-41.81 12.712-77.269 40.006-100.45 75.968z" enable-background="new" opacity=".1"/>
    <path d="m87.685 186.47-14.538 10.287c-10.569 23.111-16.465 48.807-16.465 75.881 0 11.295 1.033 22.348 2.995 33.076l28.008 19.819 69.532-69.531-69.532-69.532z" enable-background="new" opacity=".1"/>
    <path d="m87.817 325.85-6.565 38.339c15.996 27.567 38.993 50.563 66.559 66.559l38.338-6.565v-98.333h-98.332z" enable-background="new" opacity=".1"/>
  </g>
  <circle cx="256" cy="256" r="182.68" fill="#F5DF5D"/>
  <g fill="#fff">
    <path d="m302.65 79.339c-40.93 10.087-71.291 47.024-71.291 91.068 0 51.808 41.998 93.806 93.806 93.806 50.856 0 92.231-40.478 93.734-90.97-23.34-45.853-65.47-80.53-116.25-93.904z" enable-background="new" opacity=".35"/>
    <circle cx="347.25" cy="317.79" r="32.595" enable-background="new" opacity=".35"/>
  </g>
  <path d="m268.29 426.39c-100.89 0-182.68-81.789-182.68-182.68 0-47.318 17.991-90.435 47.506-122.88-36.736 33.417-59.798 81.603-59.798 135.18 0 100.89 81.789 182.68 182.68 182.68 53.573 0 101.76-23.061 135.18-59.799-32.449 29.515-75.565 47.506-122.88 47.506z" enable-background="new" fill="#25292F" opacity=".1"/>
</svg>
